<svg width="386" height="193" viewBox="0 0 386 193" fill="none" xmlns="http://www.w3.org/2000/svg">
<path d="M225.914 61.8804C224.756 47.2124 235.371 34.4744 249.267 32.7374C267.602 30.4214 280.34 42.9664 281.498 58.2134C282.656 72.4954 272.813 86.5844 255.25 88.1284C241.161 89.0934 226.686 78.2854 225.914 61.8804ZM253.513 77.8994C263.742 79.2504 271.848 68.2494 271.462 60.1434C271.076 49.9144 263.549 41.8084 253.706 41.8084C243.863 41.8084 235.757 49.9144 235.757 59.9504C235.757 71.1444 244.828 79.0574 253.513 77.8994Z" fill="#D60C31"/>
<path d="M113.588 59.9504C113.588 52.0374 113.781 44.1244 113.588 36.2114C113.588 33.7024 114.36 33.1234 116.676 33.3164C123.238 33.5094 129.993 32.9304 136.555 33.5094C147.749 34.4744 157.978 43.1594 159.908 55.3184C161.645 65.5474 158.557 73.6534 151.223 80.4084C146.205 85.0404 139.836 86.9704 133.081 87.3564C127.677 87.5494 122.08 87.3564 116.483 87.5494C113.974 87.5494 113.588 86.5844 113.588 84.2684C113.588 75.9694 113.588 68.0564 113.588 59.9504ZM123.624 59.9504C123.624 64.0034 123.624 68.0564 123.624 72.1094C123.624 77.8994 123.624 77.8994 129.414 77.8994C136.748 77.7064 143.503 75.9694 147.749 69.2144C153.925 59.1784 148.907 45.8614 137.52 43.1594C133.66 42.1944 129.993 42.9664 126.133 42.5804C124.01 42.3874 123.624 43.3524 123.624 45.2824C123.817 50.1074 123.624 55.1254 123.624 59.9504Z" fill="#020202"/>
<path d="M179.98 54.5464C179.98 64.0034 179.787 73.6534 180.173 83.1104C180.366 86.7774 178.822 87.3564 175.734 87.1634C170.33 86.9704 170.137 86.9704 170.137 83.1104C170.137 66.8984 170.137 50.6864 170.137 34.4744C170.137 33.3164 169.751 31.7724 171.102 31.1934C172.646 30.4214 173.032 32.1584 173.804 32.9304C184.612 43.9314 195.227 54.7394 205.842 65.7404C206.228 66.1264 206.614 66.3194 207.386 66.8984C207.386 56.6694 207.579 47.0194 207.193 37.3694C207 34.0884 207.772 32.7374 211.439 32.9304C216.843 33.3164 216.843 33.1234 216.843 38.3344C216.843 54.1604 216.843 69.9864 216.843 85.8124C216.843 86.7774 217.422 88.1284 216.071 88.7074C214.913 89.2864 214.334 87.9354 213.562 87.1634C203.333 76.9344 193.104 66.7054 182.875 56.4764C182.103 55.7044 181.524 54.5464 180.752 53.7744C180.559 54.1604 180.173 54.3534 179.98 54.5464Z" fill="#D60C31"/>
<path d="M14 59.9504C14 51.8444 14 43.9314 14 35.8254C14 33.8954 14.579 33.1234 16.509 33.3164C23.457 33.5094 30.405 33.3164 37.353 33.3164C45.266 33.5094 54.144 41.2294 55.688 48.9494C57.425 57.2484 55.881 64.3894 49.512 70.1794C48.161 71.3374 48.74 72.3024 49.319 73.2674C51.249 77.1274 53.179 80.7944 55.109 84.4614C56.074 86.3914 55.688 87.3564 53.565 87.3564C51.828 87.3564 49.898 87.1634 48.161 87.3564C46.038 87.5494 44.494 86.5844 44.108 84.6544C42.178 76.5484 36.967 74.8114 29.44 75.7764C24.229 76.3554 24.036 75.9694 24.036 81.3734C24.036 82.5314 23.843 83.4964 24.036 84.6544C24.229 86.7774 23.071 87.3564 21.334 87.3564C14 87.9354 14 87.9354 14 80.6014C14 73.6534 14 66.8984 14 59.9504ZM24.229 54.1604C24.229 54.7394 24.229 55.3184 24.229 55.8974C24.422 59.5644 22.685 64.3894 25.001 66.5124C26.931 68.2494 31.949 67.0914 35.423 67.0914C41.599 67.0914 46.81 61.4944 47.196 54.7394C47.582 49.1424 41.792 42.1944 36.195 41.8084C32.914 41.6154 29.44 41.8084 26.159 41.6154C24.615 41.6154 24.036 42.1944 24.229 43.5454C24.229 47.2124 24.229 50.6864 24.229 54.1604Z" fill="#020202"/>
<path d="M65.917 59.7574C65.917 51.8444 66.11 43.9314 65.917 36.0184C65.917 33.7024 66.496 33.1234 68.619 33.3164C79.62 33.5094 90.428 33.5094 101.429 33.3164C104.131 33.3164 105.289 34.2814 104.903 36.7904C104.517 39.1064 106.061 42.3874 101.429 42.3874C93.902 42.1944 86.375 42.3874 78.655 42.1944C76.532 42.1944 75.76 42.5804 75.76 44.8964C75.953 49.3354 75.953 53.7744 75.76 58.2134C75.567 60.3364 76.532 60.7224 78.462 60.7224C84.059 60.5294 89.849 60.9154 95.446 60.5294C98.341 60.3364 99.113 61.4944 99.113 64.1964C99.113 66.8984 98.92 68.8284 95.253 68.6354C89.656 68.4424 84.252 68.6354 78.655 68.4424C76.532 68.4424 75.76 68.8284 75.76 71.1444C75.76 77.7064 75.567 77.7064 82.129 77.7064C88.691 77.7064 95.446 77.8994 102.008 77.7064C104.517 77.7064 105.675 78.6714 105.289 80.9874C105.096 83.3034 106.447 86.9704 102.394 86.9704C91.007 87.1634 79.62 86.9704 68.233 86.9704C66.11 86.9704 65.724 85.6194 65.724 83.8824C65.917 76.1624 65.917 67.8634 65.917 59.7574Z" fill="#020202"/>
<path d="M331.292 60.1434C331.292 52.2304 331.485 44.3174 331.292 36.4044C331.292 34.0884 331.871 33.3164 334.187 33.3164C345.188 33.5094 356.189 33.5094 367.383 33.3164C369.506 33.3164 370.664 33.7024 370.278 36.0184C370.085 36.9834 370.085 37.9484 370.278 38.9134C370.664 41.4224 369.313 42.1944 366.997 42.1944C359.47 42.0014 352.136 42.3874 344.609 42.0014C341.907 41.8084 341.135 42.7734 341.328 45.4754C341.521 49.5284 341.521 53.5814 341.328 57.6344C341.135 59.9504 341.907 60.7224 344.223 60.7224C349.82 60.5294 355.61 60.9154 361.207 60.5294C364.488 60.3364 364.488 62.2664 364.488 64.5824C364.488 66.8984 364.488 68.8284 361.207 68.6354C355.61 68.4424 350.013 68.6354 344.223 68.4424C342.1 68.4424 341.328 68.8284 341.328 71.1444C341.328 77.8994 341.135 77.8994 347.697 77.8994C354.066 77.8994 360.435 78.0924 366.804 77.8994C369.892 77.7064 371.05 78.4784 371.05 81.9524C370.857 87.3564 371.05 87.3564 365.453 87.3564C355.417 87.3564 345.188 87.1634 335.152 87.3564C332.257 87.3564 331.099 86.5844 331.292 83.4964C331.485 75.5834 331.292 67.8634 331.292 60.1434Z" fill="#D60C31"/>
<path d="M308.904 64.5824C308.904 70.9514 308.711 77.3204 308.904 83.6894C309.097 86.5844 307.939 87.5494 305.237 87.3564C304.465 87.1634 303.5 87.3564 302.728 87.3564C299.833 87.5494 298.675 86.3914 298.675 83.3034C298.868 70.7584 298.675 58.4064 298.868 45.8614C298.868 42.9664 298.289 41.6154 295.201 42.0014C292.306 42.3874 289.411 42.0014 286.516 42.1944C284.393 42.1944 283.235 41.6154 283.621 39.2994C283.814 38.1414 283.814 37.1764 283.621 36.0184C283.235 33.7024 284.393 33.1234 286.516 33.1234C298.096 33.1234 309.676 33.3164 321.063 33.1234C323.379 33.1234 323.958 33.8954 323.958 36.0184C323.765 42.0014 323.958 41.8084 318.168 42.0014C315.273 42.0014 311.22 40.6504 309.483 42.5804C307.553 44.5104 308.904 48.5634 308.904 51.4584C308.904 55.8974 308.904 60.3364 308.904 64.5824Z" fill="#D60C31"/>
<path fill-rule="evenodd" clip-rule="evenodd" d="M139.236 123.562C139.214 126.2 139.193 128.838 139.193 131.476C139.193 139.581 139.193 147.881 139 155.601C139 157.338 139.386 158.689 141.509 158.689C144.942 158.689 145.217 158.671 148.048 158.683C148.347 158.685 148.297 158.683 148.297 158.683C148.297 158.683 149.048 158.5 149.048 158C149.053 155.526 149.036 148.5 149.036 148.5C149.036 148.5 149.036 146.176 149.036 142.863C149.036 140.547 149.808 140.16 151.931 140.16C154.73 140.257 157.48 140.257 160.23 140.257C162.98 140.257 165.73 140.257 168.529 140.354C172.196 140.547 172.389 138.616 172.389 135.914C172.389 133.212 171.617 132.055 168.722 132.248C165.523 132.468 162.26 132.437 159.007 132.405C156.569 132.381 154.136 132.358 151.738 132.441C149.808 132.441 148.843 132.055 149.036 129.932C149.229 125.493 149.229 121.054 149.036 116.615C149.036 114.889 149.019 109.364 149.006 106.656C149 105.5 149 106 148.5 105.5C148 105 147.5 105.103 147.5 105.103C146 105.073 143.545 105.035 141.895 105.035C139.772 104.842 139.193 105.421 139.193 107.737C139.322 113.012 139.279 118.287 139.236 123.562Z" fill="#020202"/>
<path fill-rule="evenodd" clip-rule="evenodd" d="M172.768 123.67C172.789 126.323 172.81 128.976 172.81 131.629C172.81 139.782 172.81 148.129 173 155.894C173 157.641 172.621 159 170.536 159C167.163 159 166.893 158.982 164.113 158.995C163.819 158.996 163.868 158.995 163.868 158.995C163.868 158.995 163.13 158.81 163.13 158.307C163.126 155.819 163.142 148.752 163.142 148.752C163.142 148.752 163.142 146.415 163.142 143.082C163.142 140.753 163.13 140.203 163.13 140.203C163.13 140.203 163.142 139.903 163.142 137.186V133.162V130.076C162.953 125.611 162.953 121.147 163.142 116.682C163.142 114.947 163.158 109.389 163.172 106.666C163.178 105.503 163.178 106.006 163.669 105.503C164.16 105 164.651 105.103 164.651 105.103C166.124 105.073 168.536 105.035 170.156 105.035C172.242 104.841 172.81 105.423 172.81 107.752C172.684 113.058 172.726 118.364 172.768 123.67Z" fill="#020202"/>
<path d="M258 132.663C258 124.557 258 116.644 258 108.538C258 106.608 258.579 105.836 260.509 106.029C267.457 106.222 274.405 106.029 281.353 106.029C289.266 106.222 298.144 113.942 299.688 121.662C301.425 129.961 299.881 137.102 293.512 142.892C292.161 144.05 292.74 145.015 293.319 145.98C295.249 149.84 297.179 153.507 299.109 157.174C300.074 159.104 299.688 160.069 297.565 160.069C295.828 160.069 293.898 159.876 292.161 160.069C290.038 160.262 288.494 159.297 288.108 157.367C286.178 149.261 280.967 147.524 273.44 148.489C268.229 149.068 268.036 148.682 268.036 154.086C268.036 155.244 267.843 156.209 268.036 157.367C268.229 159.49 267.071 160.069 265.334 160.069C258 160.648 258 160.648 258 153.314C258 146.366 258 139.611 258 132.663ZM268.229 126.873C268.229 127.452 268.229 128.031 268.229 128.61C268.422 132.277 266.685 137.102 269.001 139.225C270.931 140.962 275.949 139.804 279.423 139.804C285.599 139.804 290.81 134.207 291.196 127.452C291.582 121.855 285.792 114.907 280.195 114.521C276.914 114.328 273.44 114.521 270.159 114.328C268.615 114.328 268.036 114.907 268.229 116.258C268.229 119.925 268.229 123.399 268.229 126.873Z" fill="black"/>
<path d="M179.086 133.42C177.928 118.752 188.543 106.014 202.439 104.277C220.774 101.961 233.512 114.506 234.67 129.753C235.828 144.035 225.985 158.124 208.422 159.668C194.333 160.633 179.858 149.825 179.086 133.42ZM206.685 149.439C216.914 150.79 225.02 139.789 224.634 131.683C224.248 121.454 216.721 113.348 206.878 113.348C197.035 113.348 188.929 121.454 188.929 131.49C188.929 142.684 198 150.597 206.685 149.439Z" fill="black"/>
<mask id="path-12-inside-1_1_3" fill="white">
<path d="M110.439 103.277C96.5434 105.014 85.9285 117.752 87.0865 132.42C87.8585 148.825 102.333 159.633 116.422 158.668C122.948 158.094 128.409 155.788 132.634 152.384C136.86 148.98 124.5 145.884 124.5 145.884C121.687 147.839 118.32 148.919 114.685 148.439C106 149.597 96.9295 141.684 96.9295 130.49C96.9295 120.454 105.035 112.348 114.878 112.348C120.752 112.348 125.801 115.234 129 119.736C132.199 124.237 131.833 108.5 131.833 108.5C126.324 104.349 118.99 102.197 110.439 103.277Z"/>
</mask>
<path d="M87.0865 132.42L107.064 131.48L107.049 131.162L107.024 130.846L87.0865 132.42ZM110.439 103.277L112.92 123.122L112.933 123.121L112.946 123.119L110.439 103.277ZM116.422 158.668L117.789 178.621L117.982 178.608L118.174 178.591L116.422 158.668ZM114.685 148.439L117.304 128.611L114.673 128.263L112.042 128.614L114.685 148.439ZM131.833 108.5L151.828 108.035L151.603 98.3542L143.869 92.5267L131.833 108.5ZM124.5 145.884L129.359 126.483L120.546 124.276L113.085 129.461L124.5 145.884ZM107.024 130.846C106.701 126.748 109.72 123.522 112.92 123.122L107.959 83.4312C83.3669 86.5052 65.156 108.755 67.1485 133.994L107.024 130.846ZM115.056 138.714C113.469 138.823 111.393 138.239 109.676 136.787C108.132 135.481 107.171 133.738 107.064 131.48L67.1086 133.36C68.453 161.929 93.5004 180.285 117.789 178.621L115.056 138.714ZM114.878 92.3477C93.8508 92.3477 76.9295 109.547 76.9295 130.49H116.929C116.929 130.964 116.716 131.434 116.407 131.745C116.105 132.05 115.558 132.348 114.878 132.348V92.3477ZM76.9295 130.49C76.9295 151.798 94.7706 171.271 117.329 168.263L112.042 128.614C114.648 128.267 116.091 129.37 116.431 129.698C116.915 130.163 116.929 130.554 116.929 130.49H76.9295ZM112.946 123.119C116.582 122.66 118.646 123.605 119.798 124.473L143.869 92.5267C134.002 85.0925 121.398 81.7335 107.933 83.4344L112.946 123.119ZM145.303 108.151C138.626 98.7551 127.687 92.3477 114.878 92.3477V132.348C114.477 132.348 113.967 132.235 113.494 131.982C113.052 131.744 112.806 131.475 112.697 131.321L145.303 108.151ZM131.833 108.5C111.839 108.965 111.839 108.963 111.839 108.961C111.839 108.96 111.839 108.959 111.839 108.958C111.839 108.955 111.838 108.954 111.838 108.952C111.838 108.949 111.838 108.946 111.838 108.945C111.838 108.942 111.838 108.942 111.838 108.946C111.838 108.954 111.839 108.975 111.839 109.008C111.841 109.075 111.842 109.19 111.844 109.345C111.846 109.658 111.848 110.12 111.842 110.665C111.829 111.834 111.784 113.061 111.699 113.984C111.657 114.451 111.629 114.557 111.661 114.39C111.679 114.294 111.742 113.979 111.878 113.512C112 113.095 112.289 112.181 112.856 111.031C113.355 110.02 114.572 107.781 116.977 105.589C119.653 103.15 124.139 100.536 130.074 100.546C135.666 100.555 139.66 102.902 141.69 104.45C143.691 105.977 144.846 107.508 145.303 108.151L112.697 131.321C113.553 132.526 115.081 134.462 117.428 136.253C119.804 138.065 124.118 140.536 130.007 140.545C142.819 140.567 148.061 130.081 148.728 128.728C150.132 125.884 150.701 123.195 150.944 121.928C151.246 120.356 151.422 118.847 151.533 117.628C151.757 115.179 151.821 112.753 151.839 111.112C151.849 110.253 151.847 109.519 151.842 108.99C151.84 108.723 151.837 108.505 151.834 108.343C151.833 108.263 151.831 108.196 151.83 108.144C151.83 108.118 151.829 108.096 151.829 108.078C151.829 108.069 151.829 108.061 151.828 108.054C151.828 108.05 151.828 108.047 151.828 108.044C151.828 108.042 151.828 108.04 151.828 108.039C151.828 108.037 151.828 108.035 131.833 108.5ZM112.067 168.267C121.484 169.51 129.768 166.579 135.915 162.306L113.085 129.461C113.323 129.296 113.816 129.006 114.585 128.794C115.391 128.572 116.339 128.483 117.304 128.611L112.067 168.267ZM120.088 136.809C119.069 137.629 117.403 138.504 114.671 138.745L118.174 178.591C128.494 177.684 137.748 173.947 145.181 167.959L120.088 136.809ZM124.5 145.884C119.641 165.285 119.637 165.284 119.634 165.283C119.633 165.283 119.63 165.282 119.628 165.282C119.624 165.281 119.621 165.28 119.617 165.279C119.61 165.277 119.603 165.275 119.597 165.274C119.585 165.271 119.576 165.268 119.569 165.267C119.556 165.263 119.552 165.262 119.557 165.264C119.568 165.266 119.613 165.278 119.686 165.298C119.835 165.34 120.078 165.409 120.369 165.501C120.664 165.594 120.961 165.694 121.229 165.793C121.359 165.842 121.466 165.884 121.548 165.918C121.632 165.952 121.672 165.971 121.671 165.97C121.669 165.97 121.652 165.961 121.621 165.946C121.589 165.93 121.538 165.903 121.47 165.866C121.344 165.797 121.099 165.657 120.771 165.437C120.334 165.144 118.664 164.001 117.024 161.768C115.244 159.343 112.705 154.417 113.755 147.931C114.758 141.737 118.402 138.167 120.088 136.809L145.181 167.959C147.924 165.75 152.105 161.339 153.241 154.324C154.424 147.017 151.613 141.291 149.268 138.097C145.449 132.895 140.088 130.426 138.633 129.745C136.209 128.61 133.853 127.81 132.362 127.341C131.56 127.089 130.87 126.89 130.36 126.749C130.103 126.678 129.887 126.62 129.718 126.576C129.634 126.554 129.561 126.535 129.501 126.519C129.471 126.512 129.444 126.505 129.421 126.499C129.409 126.496 129.398 126.493 129.388 126.49C129.382 126.489 129.378 126.488 129.373 126.487C129.37 126.486 129.367 126.485 129.366 126.485C129.363 126.484 129.359 126.483 124.5 145.884Z" fill="black" mask="url(#path-12-inside-1_1_3)"/>
<path fill-rule="evenodd" clip-rule="evenodd" d="M249.768 109.112C249.789 109.554 249.81 109.996 249.81 110.438C249.81 111.797 249.31 112.206 249.5 113.5C249.5 113.791 249.621 115 247.536 115C244.163 115 243.893 114.997 241.113 114.999C240.819 114.999 240.868 114.999 240.868 114.999C240.868 114.999 240.13 114.968 240.13 114.885C240.126 114.47 240.142 113.292 240.142 113.292C240.142 113.292 240.142 112.902 240.142 112.347C240.142 111.959 240.13 111.867 240.13 111.867C240.13 111.867 240.142 111.817 240.142 111.364V110.694L240.172 110C240.13 109.112 240.142 108.236 240.142 107.947C240.142 107.658 240.158 106.731 240.172 106.278C240.178 106.084 240.178 106.168 240.669 106.084C241.16 106 241.651 106.017 241.651 106.017C243.124 106.012 245.536 106.006 247.156 106.006C249.242 105.973 249.81 106.07 249.81 106.459C249.684 107.343 249.726 108.227 249.768 109.112Z" fill="black"/>
<path fill-rule="evenodd" clip-rule="evenodd" d="M249.768 132.521C249.789 134.585 249.81 136.648 249.81 138.712C249.81 145.053 249.81 151.545 250 157.584C250 158.943 249.621 160 247.536 160C244.163 160 243.893 159.986 241.113 159.996C240.819 159.997 240.868 159.996 240.868 159.996C240.868 159.996 240.13 159.853 240.13 159.461C240.126 157.526 240.142 152.03 240.142 152.03C240.142 152.03 240.142 150.211 240.142 147.619C240.142 145.808 240.13 145.38 240.13 145.38C240.13 145.38 240.142 145.147 240.142 143.033V139.904V137.504C239.953 134.031 239.953 130.558 240.142 127.086C240.142 125.736 240.158 121.414 240.172 119.296C240.178 118.391 240.178 118.782 240.669 118.391C241.16 118 241.651 118.08 241.651 118.08C243.124 118.057 245.536 118.027 247.156 118.027C249.242 117.876 249.81 118.329 249.81 120.141C249.684 124.268 249.726 128.394 249.768 132.521Z" fill="black"/>
</svg>
